<svg id="Groupe_2696" data-name="Groupe 2696" xmlns="http://www.w3.org/2000/svg" width="105.708" height="23.122" viewBox="0 0 105.708 23.122">
  <g id="Groupe_2695" data-name="Groupe 2695" transform="translate(46.475 17.34)">
    <path id="Tracé_922" data-name="Tracé 922" d="M787.97,296.557a1.81,1.81,0,0,0-1.367-.5h-2.539a.809.809,0,0,1-.594-.212.667.667,0,0,1-.21-.5.712.712,0,0,1,.213-.51.792.792,0,0,1,.59-.228h3.988v-.874h-4.115a1.856,1.856,0,0,0-1.38.5,1.584,1.584,0,0,0,0,2.223,1.86,1.86,0,0,0,1.383.5h2.543a.757.757,0,0,1,.581.226.74.74,0,0,1,.193.506.762.762,0,0,1-.2.515.73.73,0,0,1-.576.244h-4.007v.877h4.131a1.815,1.815,0,0,0,1.364-.5,1.645,1.645,0,0,0,0-2.264Z" transform="translate(-782.101 -293.617)" fill="#393b41"/>
    <path id="Tracé_923" data-name="Tracé 923" d="M1678.4,296.557a1.815,1.815,0,0,0-1.37-.5h-2.538a.807.807,0,0,1-.593-.212.668.668,0,0,1-.211-.5.7.7,0,0,1,.214-.51.791.791,0,0,1,.59-.228h3.989v-.874h-4.116a1.864,1.864,0,0,0-1.38.5,1.586,1.586,0,0,0,0,2.223,1.863,1.863,0,0,0,1.382.5h2.543a.741.741,0,0,1,.579.227.719.719,0,0,1,.194.5.759.759,0,0,1-.2.515.734.734,0,0,1-.578.244h-4.005v.877h4.129a1.812,1.812,0,0,0,1.366-.5,1.643,1.643,0,0,0,0-2.264Z" transform="translate(-1619.619 -293.617)" fill="#393b41"/>
    <path id="Tracé_924" data-name="Tracé 924" d="M1063.046,296.557a1.812,1.812,0,0,0-1.368-.5h-2.538a.811.811,0,0,1-.594-.212.664.664,0,0,1-.212-.5.709.709,0,0,1,.215-.51.794.794,0,0,1,.592-.228h3.989v-.874h-4.119a1.857,1.857,0,0,0-1.379.5,1.583,1.583,0,0,0,0,2.223,1.859,1.859,0,0,0,1.382.5h2.544a.749.749,0,0,1,.579.227.718.718,0,0,1,.193.5.754.754,0,0,1-.2.515.735.735,0,0,1-.577.244h-4.006v.877h4.127a1.816,1.816,0,0,0,1.368-.5,1.648,1.648,0,0,0,0-2.264Z" transform="translate(-1040.829 -293.617)" fill="#393b41"/>
    <path id="Tracé_925" data-name="Tracé 925" d="M918.141,294.367c-.118.145-1.712,2.243-1.712,2.243l-.318.381-.336-.381s-1.637-2.105-1.75-2.243H912.6l2.854,3.5v2.05h1.259v-2.05s2.448-2.983,2.877-3.5Z" transform="translate(-904.843 -294.215)" fill="#393b41"/>
    <path id="Tracé_926" data-name="Tracé 926" d="M1200.228,293.732h-4.962v.874h1.861v4.718h1.232v-4.718h1.869Z" transform="translate(-1170.714 -293.617)" fill="#393b41"/>
    <path id="Tracé_927" data-name="Tracé 927" d="M1315.181,297.684a.718.718,0,0,0,.2.511.793.793,0,0,0,.6.23h3.991v.9h-4.119a1.837,1.837,0,0,1-1.38-.51,1.641,1.641,0,0,1-.073-2.189l.1-.121-.1-.118a1.524,1.524,0,0,1-.383-1.038,1.5,1.5,0,0,1,.456-1.114,1.852,1.852,0,0,1,1.38-.5h4.119v.874h-3.991a.8.8,0,0,0-.592.228.711.711,0,0,0-.213.51.667.667,0,0,0,.21.5.813.813,0,0,0,.6.212h3.991v.9h-4.065A.738.738,0,0,0,1315.181,297.684Z" transform="translate(-1282.414 -293.617)" fill="#393b41"/>
    <path id="Tracé_928" data-name="Tracé 928" d="M1467.278,292.717c.233,0,.483.049.724.585.109.276,1.477,4.2,1.477,4.2h1.193l-1.532-4.232c-.387-.974-.717-1.468-1.85-1.468a2.582,2.582,0,0,0-1.253.267.881.881,0,0,0-.51.831v3.216a.506.506,0,0,1-.492.543.731.731,0,0,1-.659-.454c-.145-.249-1.289-3.164-1.494-3.592a1.627,1.627,0,0,0-1.578-.811,2.489,2.489,0,0,0-1.234.267.9.9,0,0,0-.527.833v4.6h1.216v-4.294a.449.449,0,0,1,.467-.491c.453,0,.523.232.837.9l1.1,2.916a1.582,1.582,0,0,0,.752.8,2.387,2.387,0,0,0,1.105.254,2.281,2.281,0,0,0,1.218-.315.9.9,0,0,0,.505-.779v-3.282A.487.487,0,0,1,1467.278,292.717Z" transform="translate(-1419.288 -291.802)" fill="#393b41"/>
  </g>
  <path id="Tracé_929" data-name="Tracé 929" d="M14.748,5.484a4.49,4.49,0,0,0-1.1-3.037,4.058,4.058,0,0,0-3.222-1.4H0V15.324H10.426a4.034,4.034,0,0,0,3.214-1.379,4.418,4.418,0,0,0,1.073-2.992,4.621,4.621,0,0,0-.239-1.5,3.878,3.878,0,0,0-.718-1.264A3.543,3.543,0,0,0,14.5,6.968,4.37,4.37,0,0,0,14.748,5.484Zm-3.976,6.45a1.163,1.163,0,0,1-.932.408H3.487V9.787H9.84a1.184,1.184,0,0,1,.945.385,1.259,1.259,0,0,1,.3.863A1.336,1.336,0,0,1,10.772,11.934Zm-.012-5.7a1.164,1.164,0,0,1-.92.368H3.487V4.068H9.84a1.168,1.168,0,0,1,.932.406,1.331,1.331,0,0,1,.311.9A1.266,1.266,0,0,1,10.76,6.235Zm35.61,9.089h3.488V1.047H46.37ZM51.436,4.068h3.57V15.324h3.447V4.068h3.571V1.047H51.436ZM63.673,2.4a4.369,4.369,0,0,0-1.059,2.969,4.436,4.436,0,0,0,.892,2.759,4.534,4.534,0,0,0-.892,2.8,4.468,4.468,0,0,0,1.059,3.025,4,4,0,0,0,3.2,1.373h9V12.241H67.455a1.115,1.115,0,0,1-.916-.388,1.413,1.413,0,0,1-.316-.918,1.539,1.539,0,0,1,.2-.776,1.088,1.088,0,0,1,.549-.494h8.25V6.583H67.455a1.162,1.162,0,0,1-.916-.357,1.267,1.267,0,0,1-.316-.866,1.35,1.35,0,0,1,.329-.9,1.122,1.122,0,0,1,.9-.387h8.416V1.047h-9A4.03,4.03,0,0,0,63.673,2.4Zm14.859.929A8.293,8.293,0,0,0,77.055,8.3a7.919,7.919,0,0,0,1.451,4.837,5.192,5.192,0,0,0,4.4,2.186H90.64v-3.1H83.481a2.258,2.258,0,0,1-2.006-1.306,5.652,5.652,0,0,1-.688-2.87A5.249,5.249,0,0,1,81.451,5.3a2.265,2.265,0,0,1,2.031-1.236H90.64V1.047H82.911A5.116,5.116,0,0,0,78.532,3.325Zm23.393-2.278V6.583H95.577V1.047H92.09V15.324h3.487V9.665h6.348v5.659h3.49V1.047Z" transform="translate(0 -0.985)" fill="#393b41"/>
  <path id="AV" d="M264.891,4.546a22.391,22.391,0,0,0-1.4-3.319,2.9,2.9,0,0,0-1.354-.911A5.713,5.713,0,0,0,260.206,0a5.8,5.8,0,0,0-1.943.316,2.893,2.893,0,0,0-1.357.911,28.017,28.017,0,0,0-1.371,3.343q-1.01,2.7-2.08,5.725t-1.39,4.044h3.792L259.9,3.36a.35.35,0,0,1,.324-.176c.156,0,.244.058.273.176l4.127,10.979h3.742q-.6-1.694-1.423-4.069Q265.577,6.37,264.891,4.546Zm9.33,6.7a.366.366,0,0,1-.339.176c-.155,0-.246-.057-.271-.176L269.5.162h-3.753q.285.807,1.423,4.09,1.37,3.959,2.044,5.77a20.975,20.975,0,0,0,1.4,3.342,2.831,2.831,0,0,0,1.353.922,5.965,5.965,0,0,0,3.87-.011,2.9,2.9,0,0,0,1.364-.911,24.5,24.5,0,0,0,1.387-3.353q.97-2.618,2.071-5.77.882-2.514,1.384-4.079h-3.791Z" transform="translate(-237.087)" fill="#cc1719"/>
</svg>
