<svg id="Groupe_2696" data-name="Groupe 2696" xmlns="http://www.w3.org/2000/svg" width="190" height="41.56" viewBox="0 0 190 41.56">
  <g id="Groupe_2695" data-name="Groupe 2695" transform="translate(83.534 31.166)">
    <path id="Tracé_922" data-name="Tracé 922" d="M792.65,298.809a3.252,3.252,0,0,0-2.457-.908h-4.564a1.454,1.454,0,0,1-1.068-.381,1.2,1.2,0,0,1-.377-.89,1.281,1.281,0,0,1,.384-.916,1.423,1.423,0,0,1,1.061-.41H792.8v-1.572h-7.4a3.335,3.335,0,0,0-2.479.905,2.848,2.848,0,0,0,0,4,3.344,3.344,0,0,0,2.486.894h4.571a1.36,1.36,0,0,1,1.043.405,1.33,1.33,0,0,1,.346.91,1.369,1.369,0,0,1-.355.925,1.312,1.312,0,0,1-1.035.438h-7.2v1.576H790.2a3.263,3.263,0,0,0,2.451-.905,2.957,2.957,0,0,0,0-4.069Z" transform="translate(-782.101 -293.526)" fill="#393b41"/>
    <path id="Tracé_923" data-name="Tracé 923" d="M1683.082,298.809a3.262,3.262,0,0,0-2.462-.908h-4.562a1.451,1.451,0,0,1-1.065-.381,1.2,1.2,0,0,1-.379-.89,1.263,1.263,0,0,1,.384-.916,1.423,1.423,0,0,1,1.061-.41h7.17v-1.572h-7.4a3.35,3.35,0,0,0-2.481.905,2.85,2.85,0,0,0,0,4,3.349,3.349,0,0,0,2.484.894h4.571a1.332,1.332,0,0,1,1.041.408,1.293,1.293,0,0,1,.349.908,1.365,1.365,0,0,1-.351.925,1.318,1.318,0,0,1-1.039.438h-7.2v1.576h7.421a3.257,3.257,0,0,0,2.455-.905,2.954,2.954,0,0,0,0-4.069Z" transform="translate(-1577.427 -293.526)" fill="#393b41"/>
    <path id="Tracé_924" data-name="Tracé 924" d="M1067.728,298.809a3.257,3.257,0,0,0-2.46-.908h-4.562a1.457,1.457,0,0,1-1.068-.381,1.2,1.2,0,0,1-.381-.89,1.274,1.274,0,0,1,.386-.916,1.427,1.427,0,0,1,1.063-.41h7.171v-1.572h-7.4a3.338,3.338,0,0,0-2.479.905,2.845,2.845,0,0,0,0,4,3.342,3.342,0,0,0,2.484.894h4.573a1.346,1.346,0,0,1,1.041.408,1.29,1.29,0,0,1,.346.908,1.355,1.355,0,0,1-.35.925,1.32,1.32,0,0,1-1.037.438h-7.2v1.576h7.418a3.264,3.264,0,0,0,2.46-.905,2.962,2.962,0,0,0,0-4.069Z" transform="translate(-1027.795 -293.526)" fill="#393b41"/>
    <path id="Tracé_925" data-name="Tracé 925" d="M922.561,294.367c-.213.261-3.078,4.031-3.078,4.031l-.572.684-.6-.684s-2.942-3.784-3.146-4.031H912.6l5.13,6.3v3.685h2.262v-3.685s4.4-5.362,5.171-6.3Z" transform="translate(-898.66 -294.093)" fill="#393b41"/>
    <path id="Tracé_926" data-name="Tracé 926" d="M1204.184,293.732h-8.918V295.3h3.345v8.48h2.214V295.3h3.359Z" transform="translate(-1151.137 -293.526)" fill="#393b41"/>
    <path id="Tracé_927" data-name="Tracé 927" d="M1316.105,300.835a1.289,1.289,0,0,0,.366.919,1.425,1.425,0,0,0,1.081.414h7.173v1.616h-7.4a3.3,3.3,0,0,1-2.479-.916,2.95,2.95,0,0,1-.132-3.935l.189-.217-.189-.212a2.739,2.739,0,0,1-.688-1.866,2.7,2.7,0,0,1,.82-2,3.329,3.329,0,0,1,2.479-.9h7.4V295.3h-7.173a1.43,1.43,0,0,0-1.063.41,1.277,1.277,0,0,0-.384.916,1.2,1.2,0,0,0,.377.89,1.462,1.462,0,0,0,1.07.381h7.173v1.627h-7.307A1.326,1.326,0,0,0,1316.105,300.835Z" transform="translate(-1257.21 -293.526)" fill="#393b41"/>
    <path id="Tracé_928" data-name="Tracé 928" d="M1473.445,293.446c.419,0,.868.087,1.3,1.052.2.5,2.655,7.55,2.655,7.55h2.144l-2.753-7.607c-.7-1.751-1.289-2.639-3.325-2.639a4.642,4.642,0,0,0-2.252.48,1.584,1.584,0,0,0-.916,1.493v5.781a.909.909,0,0,1-.883.975,1.313,1.313,0,0,1-1.184-.816c-.261-.447-2.317-5.686-2.685-6.456a2.925,2.925,0,0,0-2.837-1.458,4.475,4.475,0,0,0-2.219.48,1.611,1.611,0,0,0-.947,1.5v8.269h2.186v-7.719a.808.808,0,0,1,.84-.883c.815,0,.94.416,1.5,1.618l1.975,5.241a2.844,2.844,0,0,0,1.352,1.434,4.291,4.291,0,0,0,1.986.456,4.1,4.1,0,0,0,2.19-.565,1.626,1.626,0,0,0,.908-1.4v-5.9A.875.875,0,0,1,1473.445,293.446Z" transform="translate(-1387.188 -291.802)" fill="#393b41"/>
  </g>
  <path id="Tracé_929" data-name="Tracé 929" d="M26.508,9.022a8.07,8.07,0,0,0-1.977-5.458,7.294,7.294,0,0,0-5.792-2.517H0V26.709H18.739a7.25,7.25,0,0,0,5.777-2.479,7.94,7.94,0,0,0,1.929-5.377,8.306,8.306,0,0,0-.43-2.688,6.97,6.97,0,0,0-1.291-2.271,6.367,6.367,0,0,0,1.335-2.2A7.855,7.855,0,0,0,26.508,9.022ZM19.362,20.615a2.09,2.09,0,0,1-1.675.734H6.268V16.756H17.687a2.129,2.129,0,0,1,1.7.693A2.264,2.264,0,0,1,19.92,19,2.4,2.4,0,0,1,19.362,20.615ZM19.34,10.373a2.092,2.092,0,0,1-1.653.662H6.268V6.477H17.687a2.1,2.1,0,0,1,1.675.73,2.393,2.393,0,0,1,.559,1.609A2.275,2.275,0,0,1,19.34,10.373ZM83.345,26.709h6.27V1.047h-6.27ZM92.451,6.477h6.417V26.709h6.2V6.477h6.419V1.047H92.451Zm21.995-3.006a7.853,7.853,0,0,0-1.9,5.336,7.974,7.974,0,0,0,1.6,4.959,8.149,8.149,0,0,0-1.6,5.038,8.031,8.031,0,0,0,1.9,5.437,7.193,7.193,0,0,0,5.75,2.468H136.37V21.167H121.244a2,2,0,0,1-1.646-.7,2.54,2.54,0,0,1-.568-1.651,2.767,2.767,0,0,1,.362-1.394,1.956,1.956,0,0,1,.987-.888h14.828V11H121.244a2.088,2.088,0,0,1-1.646-.642A2.278,2.278,0,0,1,119.03,8.8a2.426,2.426,0,0,1,.592-1.627,2.017,2.017,0,0,1,1.622-.695H136.37V1.047H120.2A7.243,7.243,0,0,0,114.446,3.471Zm26.707,1.671a14.906,14.906,0,0,0-2.655,8.944,14.234,14.234,0,0,0,2.609,8.694,9.332,9.332,0,0,0,7.916,3.928h13.892V21.13H150.049a4.058,4.058,0,0,1-3.606-2.348,10.159,10.159,0,0,1-1.236-5.158A9.434,9.434,0,0,1,146.4,8.7a4.072,4.072,0,0,1,3.65-2.221h12.866V1.047H149.023A9.2,9.2,0,0,0,141.153,5.142ZM183.2,1.047V11h-11.41V1.047h-6.268V26.709h6.268V16.537H183.2V26.709h6.272V1.047Z" transform="translate(0 -0.935)" fill="#393b41"/>
  <path id="AV" d="M275.118,8.17a40.241,40.241,0,0,0-2.51-5.965A5.211,5.211,0,0,0,270.175.568,10.269,10.269,0,0,0,266.7,0a10.425,10.425,0,0,0-3.492.568,5.2,5.2,0,0,0-2.44,1.638A50.376,50.376,0,0,0,258.3,8.214q-1.815,4.847-3.738,10.29t-2.5,7.269h6.816l7.258-19.734a.628.628,0,0,1,.583-.316c.281,0,.438.105.491.316l7.418,19.734h6.726q-1.072-3.045-2.559-7.313Q276.352,11.45,275.118,8.17Zm16.77,12.037a.658.658,0,0,1-.609.316c-.278,0-.443-.1-.487-.316L283.394.291h-6.745q.513,1.45,2.558,7.351,2.463,7.116,3.674,10.371A37.7,37.7,0,0,0,285.4,24.02a5.088,5.088,0,0,0,2.431,1.657,10.721,10.721,0,0,0,6.956-.02,5.221,5.221,0,0,0,2.451-1.638,44.033,44.033,0,0,0,2.493-6.026q1.743-4.706,3.722-10.371Q305.033,3.1,305.936.291h-6.813Z" transform="translate(-225.143)" fill="#cc1719"/>
</svg>
